<svg xmlns="http://www.w3.org/2000/svg" viewBox="0 0 512 512" role="img" aria-label="BMPC Document Retrieval logo">
  <defs>
    <linearGradient id="bg" x1="84" y1="60" x2="430" y2="452" gradientUnits="userSpaceOnUse">
      <stop offset="0" stop-color="#f7fbff"/>
      <stop offset="1" stop-color="#dde9ff"/>
    </linearGradient>
    <linearGradient id="ring" x1="94" y1="120" x2="410" y2="392" gradientUnits="userSpaceOnUse">
      <stop offset="0" stop-color="#1f8fff"/>
      <stop offset="0.45" stop-color="#1a58d9"/>
      <stop offset="1" stop-color="#0f2d77"/>
    </linearGradient>
    <linearGradient id="orange" x1="100" y1="210" x2="308" y2="378" gradientUnits="userSpaceOnUse">
      <stop offset="0" stop-color="#ff9c1a"/>
      <stop offset="1" stop-color="#ff5f18"/>
    </linearGradient>
    <linearGradient id="blue" x1="250" y1="206" x2="430" y2="396" gradientUnits="userSpaceOnUse">
      <stop offset="0" stop-color="#1546c5"/>
      <stop offset="1" stop-color="#0a2b8a"/>
    </linearGradient>
    <linearGradient id="ribbonBlue" x1="280" y1="118" x2="424" y2="242" gradientUnits="userSpaceOnUse">
      <stop offset="0" stop-color="#2147d9"/>
      <stop offset="1" stop-color="#0d2c8f"/>
    </linearGradient>
    <linearGradient id="ribbonYellow" x1="286" y1="154" x2="430" y2="270" gradientUnits="userSpaceOnUse">
      <stop offset="0" stop-color="#ffe852"/>
      <stop offset="1" stop-color="#ffcc09"/>
    </linearGradient>
    <linearGradient id="ribbonRed" x1="280" y1="190" x2="428" y2="305" gradientUnits="userSpaceOnUse">
      <stop offset="0" stop-color="#ff6d5d"/>
      <stop offset="1" stop-color="#f20c22"/>
    </linearGradient>
    <filter id="shadow" x="-20%" y="-20%" width="140%" height="140%">
      <feDropShadow dx="0" dy="10" stdDeviation="12" flood-color="#10255b" flood-opacity=".18"/>
    </filter>
    <filter id="textShadow" x="-20%" y="-20%" width="140%" height="140%">
      <feDropShadow dx="0" dy="4" stdDeviation="4" flood-color="#07153b" flood-opacity=".28"/>
    </filter>
  </defs>

  <rect x="0" y="0" width="512" height="512" rx="64" fill="url(#bg)"/>

  <circle cx="256" cy="244" r="168" fill="none" stroke="url(#ring)" stroke-width="24" stroke-linecap="round"/>
  <path d="M101 265c24-91 98-152 190-152 39 0 76 10 109 29 21 12 39 28 54 47-18-14-38-24-60-31-32-10-66-10-99-3-74 15-136 69-170 160-12 31-20 63-24 96 1-18 0-36 0-46z" fill="#0b2e8a" opacity=".15"/>
  <path d="M102 261c0-103 85-187 191-187 76 0 143 43 175 108-24-28-56-50-92-61-93-27-194 20-231 109-18 42-23 88-16 132-18-29-27-62-27-101z" fill="url(#ring)" opacity=".12"/>

  <g filter="url(#shadow)">
    <path d="M289 178c44-18 97-14 136 15 8 6 16 13 23 21-19 18-43 31-70 38-57 15-106-5-130-21 10-20 25-39 41-53z" fill="url(#ribbonBlue)"/>
    <path d="M283 208c47-4 93 5 135 27-14 14-31 25-50 33-51 21-104 19-148 2 12-21 36-49 63-62z" fill="url(#ribbonYellow)"/>
    <path d="M272 239c50 0 101 13 146 38-12 14-26 26-41 35-52 32-112 34-165 20 15-28 37-65 60-93z" fill="url(#ribbonRed)"/>
  </g>

  <g filter="url(#textShadow)">
    <text x="120" y="320" font-family="Segoe UI, Arial, sans-serif" font-size="132" font-weight="900" letter-spacing="-10" fill="url(#orange)">co</text>
    <text x="318" y="320" font-family="Segoe UI, Arial, sans-serif" font-size="132" font-weight="900" letter-spacing="-10" fill="url(#blue)">op</text>
  </g>

  <text x="256" y="366" text-anchor="middle" font-family="Segoe UI, Arial, sans-serif" font-size="23" font-weight="700" fill="#495062" letter-spacing=".8">NATCCO Network</text>

  <g filter="url(#textShadow)">
    <text x="256" y="446" text-anchor="middle" font-family="Georgia, 'Times New Roman', serif" font-size="70" font-weight="700" fill="#123a92" letter-spacing="10">BARBAZA</text>
  </g>

  <rect x="86" y="462" width="340" height="6" rx="3" fill="url(#ring)"/>
  <rect x="246" y="462" width="95" height="6" rx="3" fill="#f7c700"/>
  <rect x="340" y="462" width="86" height="6" rx="3" fill="#ef2b2d"/>

  <g transform="translate(74 424)" filter="url(#shadow)">
    <circle cx="0" cy="0" r="26" fill="#ffffff" stroke="#1d4fba" stroke-width="4"/>
    <circle cx="0" cy="0" r="18" fill="#eaf3ff"/>
    <path d="M-10 1c4-7 17-7 21 0" fill="none" stroke="#113a98" stroke-width="4" stroke-linecap="round"/>
    <circle cx="-7" cy="-4" r="3" fill="#113a98"/>
    <circle cx="0" cy="-7" r="3" fill="#113a98"/>
    <circle cx="7" cy="-4" r="3" fill="#113a98"/>
  </g>

  <g transform="translate(438 424)" filter="url(#shadow)">
    <circle cx="0" cy="0" r="26" fill="#ffffff" stroke="#1d4fba" stroke-width="4"/>
    <path d="M-11-2l7 7 13-15" fill="none" stroke="#113a98" stroke-width="5" stroke-linecap="round" stroke-linejoin="round"/>
  </g>

  <text x="256" y="498" text-anchor="middle" font-family="Segoe UI, Arial, sans-serif" font-size="18" letter-spacing="7" fill="#1a2d66">UNITY • SERVICE • PROGRESS</text>
</svg>
